<?xml version="1.0" encoding="utf-8"?>
<!-- Generator: Adobe Illustrator 22.1.0, SVG Export Plug-In . SVG Version: 6.00 Build 0)  -->
<svg version="1.1" id="Layer_1" xmlns="http://www.w3.org/2000/svg" xmlns:xlink="http://www.w3.org/1999/xlink" x="0px" y="0px"
	 viewBox="0 0 512 512" style="enable-background:new 0 0 512 512;" xml:space="preserve">
<style type="text/css">
	.st0{fill:#8B71B5;}
	.st1{fill:#E56A77;}
	.st2{fill:#EDC951;}
	.st3{fill:#53ECF4;}
</style>
<g id="group-2svg">
	<path id="path-1" class="st0" d="M433.7,386.5h17.8V327H181.8l11.4,59.5h20.4l0,0"/>
	<path id="path-2" class="st1" d="M181.8,327h217.1L456,208H152.6L181.8,327z"/>
	<path id="path-3" class="st2" d="M425.7,390.4c0,18.9-15.3,34.3-34.3,34.3c-18.9,0-34.3-15.4-34.3-34.3c0-18.9,15.4-34.3,34.3-34.3
		C410.4,356.1,425.7,371.5,425.7,390.4z"/>
	<path id="path-4" class="st2" d="M288.3,390.4c0,18.9-15.4,34.3-34.3,34.3c-18.9,0-34.3-15.4-34.3-34.3c0-18.9,15.3-34.3,34.3-34.3
		C273,356.1,288.3,371.5,288.3,390.4z"/>
	<path id="path-5" class="st3" d="M242.1,193l39.7,61.2c5.8,8.7,18.5,9.7,24.6,1.2l42.1-62.5c7-9.9-0.1-26.6-12.2-26.6h-15.6V99.3
		c0-3.3-0.5-4.3-3.8-4.3h-35.7c-3.3,0-8.1,1-8.1,4.3v67.1h-18.6C242.6,166.4,235.5,183.1,242.1,193z"/>
	<path id="path-6" d="M363.2,327H146.1c-4.1,0-7.7-2.8-8.7-6.8l-29.2-119c-0.6-2.7,0-5.5,1.6-7.6c1.7-2.2,4.3-3.4,7-3.4h66.9
		c4.9,0,8.9,4,8.9,8.9s-4,8.9-8.9,8.9h-55.5l24.8,101.1h204.5L406.1,208h-61.6c-4.9,0-8.9-4-8.9-8.9s4-8.9,8.9-8.9h75.8
		c3.1,0,5.9,1.6,7.6,4.2c1.6,2.6,1.8,5.8,0.5,8.6l-57.1,119C369.7,325,366.6,327,363.2,327z"/>
	<path id="path-7" d="M418.9,392.5H398c-4.9,0-8.9-4-8.9-8.9c0-4.9,4-8.9,8.9-8.9h11.9V327H156.7l8.3,47.6h12.9c4.9,0,8.9,4,8.9,8.9
		c0,4.9-4,8.9-8.9,8.9h-20.4c-4.3,0-8-3.1-8.8-7.4l-11.4-65.4c-0.5-2.6,0.3-5.3,2-7.3c1.7-2,4.2-3.2,6.8-3.2h272.8
		c4.9,0,8.9,4,8.9,8.9v65.4C427.8,388.5,423.8,392.5,418.9,392.5z"/>
	<path id="path-8" d="M314.7,392.5h-59.5c-4.9,0-8.9-4-8.9-8.9c0-4.9,4-8.9,8.9-8.9h59.5c4.9,0,8.9,4,8.9,8.9
		C323.7,388.5,319.7,392.5,314.7,392.5z"/>
	<path id="path-9" d="M355.7,428.9c-23.8,0-43.2-19.4-43.2-43.2c0-23.8,19.4-43.2,43.2-43.2c23.8,0,43.2,19.4,43.2,43.2
		C398.9,409.5,379.6,428.9,355.7,428.9z M355.7,360.4c-14,0-25.4,11.4-25.4,25.4c0,14,11.4,25.4,25.4,25.4c14,0,25.3-11.4,25.3-25.4
		C381.1,371.7,369.7,360.4,355.7,360.4z"/>
	<path id="path-10" d="M218.4,428.9c-23.8,0-43.2-19.4-43.2-43.2c0-23.8,19.4-43.2,43.2-43.2s43.2,19.4,43.2,43.2
		C261.6,409.5,242.2,428.9,218.4,428.9z M218.4,360.4c-14,0-25.4,11.4-25.4,25.4c0,14,11.4,25.4,25.4,25.4c14,0,25.4-11.4,25.4-25.4
		C243.7,371.7,232.3,360.4,218.4,360.4z"/>
	<path id="path-11" d="M157.5,388.9c-4,0-7.7-2.7-8.7-6.8l-57.1-235c-0.2-0.7-0.2-1.4-0.2-2.1c0-4-4-7.3-8.8-7.3
		c-5,0-8.9,4.1-8.9,9.3c0,3.2,1.6,6.2,4.2,8c4.1,2.7,5.2,8.3,2.5,12.4c-2.7,4.1-8.3,5.2-12.4,2.5c-7.6-5.1-12.2-13.6-12.2-22.8
		c0-15,12-27.2,26.7-27.2c14.2,0,25.9,10.6,26.6,24l56.9,234c1.2,4.8-1.8,9.6-6.6,10.8C158.9,388.8,158.2,388.9,157.5,388.9z"/>
	<path id="path-12" d="M268.4,269.8L268.4,269.8c-8.3,0-16.1-4.2-20.8-11.3l-39.8-62.1c-5.2-7.8-5.3-19.1-0.2-28.7
		c4.4-8.3,12-13.2,20.1-13.2h9.7V99.3c0-8.7,9.4-16.2,17-16.2h35.7c2.1,0,12.7,0.8,12.7,16.2v55.2h6.7c8.4,0,16.1,5,20.5,13.5
		c4.9,9.5,4.5,20.6-1,28.4L287.1,260C282.6,266.3,275.9,269.8,268.4,269.8z M227.7,172.3c-1.8,0-3.4,2-4.4,3.8
		c-1.9,3.6-2.2,8.1-0.6,10.5l39.8,62.1c1.5,2.3,4.1,3.2,5.9,3.2c1.7,0,3-0.7,3.9-2l41.9-63.6c1.8-2.5,1.6-6.8-0.1-10.2
		c-1-1.9-2.7-3.9-4.6-3.9H285v-71.4h-29.7c0,0,0,0,0,0v71.4H227.7z"/>
</g>
</svg>
